<svg width="80" height="35" viewBox="0 0 80 35" fill="none" xmlns="http://www.w3.org/2000/svg">
<path d="M4.32432 2.1875C4.32432 3.39562 3.35629 4.375 2.16216 4.375C0.968033 4.375 0 3.39562 0 2.1875C0 0.979377 0.968033 0 2.16216 0C3.35629 0 4.32432 0.979377 4.32432 2.1875Z" fill="url(#paint0_linear_38039_840)"/>
<path d="M19.4595 2.1875C19.4595 3.39562 18.4914 4.375 17.2973 4.375C16.1032 4.375 15.1351 3.39562 15.1351 2.1875C15.1351 0.979377 16.1032 0 17.2973 0C18.4914 0 19.4595 0.979377 19.4595 2.1875Z" fill="url(#paint1_linear_38039_840)"/>
<path d="M34.5946 2.1875C34.5946 3.39562 33.6266 4.375 32.4324 4.375C31.2383 4.375 30.2703 3.39562 30.2703 2.1875C30.2703 0.979377 31.2383 0 32.4324 0C33.6266 0 34.5946 0.979377 34.5946 2.1875Z" fill="url(#paint2_linear_38039_840)"/>
<path d="M49.7297 2.1875C49.7297 3.39562 48.7617 4.375 47.5676 4.375C46.3734 4.375 45.4054 3.39562 45.4054 2.1875C45.4054 0.979377 46.3734 0 47.5676 0C48.7617 0 49.7297 0.979377 49.7297 2.1875Z" fill="url(#paint3_linear_38039_840)"/>
<path d="M64.8649 2.1875C64.8649 3.39562 63.8968 4.375 62.7027 4.375C61.5086 4.375 60.5405 3.39562 60.5405 2.1875C60.5405 0.979377 61.5086 0 62.7027 0C63.8968 0 64.8649 0.979377 64.8649 2.1875Z" fill="url(#paint4_linear_38039_840)"/>
<path d="M80 2.1875C80 3.39562 79.032 4.375 77.8378 4.375C76.6437 4.375 75.6757 3.39562 75.6757 2.1875C75.6757 0.979377 76.6437 0 77.8378 0C79.032 0 80 0.979377 80 2.1875Z" fill="url(#paint5_linear_38039_840)"/>
<path d="M4.32432 17.5C4.32432 18.7081 3.35629 19.6875 2.16216 19.6875C0.968033 19.6875 0 18.7081 0 17.5C0 16.2919 0.968033 15.3125 2.16216 15.3125C3.35629 15.3125 4.32432 16.2919 4.32432 17.5Z" fill="url(#paint6_linear_38039_840)"/>
<path d="M19.4595 17.5C19.4595 18.7081 18.4914 19.6875 17.2973 19.6875C16.1032 19.6875 15.1351 18.7081 15.1351 17.5C15.1351 16.2919 16.1032 15.3125 17.2973 15.3125C18.4914 15.3125 19.4595 16.2919 19.4595 17.5Z" fill="url(#paint7_linear_38039_840)"/>
<path d="M34.5946 17.5C34.5946 18.7081 33.6266 19.6875 32.4324 19.6875C31.2383 19.6875 30.2703 18.7081 30.2703 17.5C30.2703 16.2919 31.2383 15.3125 32.4324 15.3125C33.6266 15.3125 34.5946 16.2919 34.5946 17.5Z" fill="url(#paint8_linear_38039_840)"/>
<path d="M49.7297 17.5C49.7297 18.7081 48.7617 19.6875 47.5676 19.6875C46.3734 19.6875 45.4054 18.7081 45.4054 17.5C45.4054 16.2919 46.3734 15.3125 47.5676 15.3125C48.7617 15.3125 49.7297 16.2919 49.7297 17.5Z" fill="url(#paint9_linear_38039_840)"/>
<path d="M64.8649 17.5C64.8649 18.7081 63.8968 19.6875 62.7027 19.6875C61.5086 19.6875 60.5405 18.7081 60.5405 17.5C60.5405 16.2919 61.5086 15.3125 62.7027 15.3125C63.8968 15.3125 64.8649 16.2919 64.8649 17.5Z" fill="url(#paint10_linear_38039_840)"/>
<path d="M80 17.5C80 18.7081 79.032 19.6875 77.8378 19.6875C76.6437 19.6875 75.6757 18.7081 75.6757 17.5C75.6757 16.2919 76.6437 15.3125 77.8378 15.3125C79.032 15.3125 80 16.2919 80 17.5Z" fill="url(#paint11_linear_38039_840)"/>
<path d="M4.32432 32.8125C4.32432 34.0206 3.35629 35 2.16216 35C0.968033 35 0 34.0206 0 32.8125C0 31.6044 0.968033 30.625 2.16216 30.625C3.35629 30.625 4.32432 31.6044 4.32432 32.8125Z" fill="url(#paint12_linear_38039_840)"/>
<path d="M19.4595 32.8125C19.4595 34.0206 18.4914 35 17.2973 35C16.1032 35 15.1351 34.0206 15.1351 32.8125C15.1351 31.6044 16.1032 30.625 17.2973 30.625C18.4914 30.625 19.4595 31.6044 19.4595 32.8125Z" fill="url(#paint13_linear_38039_840)"/>
<path d="M34.5946 32.8125C34.5946 34.0206 33.6266 35 32.4324 35C31.2383 35 30.2703 34.0206 30.2703 32.8125C30.2703 31.6044 31.2383 30.625 32.4324 30.625C33.6266 30.625 34.5946 31.6044 34.5946 32.8125Z" fill="url(#paint14_linear_38039_840)"/>
<path d="M49.7297 32.8125C49.7297 34.0206 48.7617 35 47.5676 35C46.3734 35 45.4054 34.0206 45.4054 32.8125C45.4054 31.6044 46.3734 30.625 47.5676 30.625C48.7617 30.625 49.7297 31.6044 49.7297 32.8125Z" fill="url(#paint15_linear_38039_840)"/>
<path d="M64.8649 32.8125C64.8649 34.0206 63.8968 35 62.7027 35C61.5086 35 60.5405 34.0206 60.5405 32.8125C60.5405 31.6044 61.5086 30.625 62.7027 30.625C63.8968 30.625 64.8649 31.6044 64.8649 32.8125Z" fill="url(#paint16_linear_38039_840)"/>
<path d="M80 32.8125C80 34.0206 79.032 35 77.8378 35C76.6437 35 75.6757 34.0206 75.6757 32.8125C75.6757 31.6044 76.6437 30.625 77.8378 30.625C79.032 30.625 80 31.6044 80 32.8125Z" fill="url(#paint17_linear_38039_840)"/>
<defs>
<linearGradient id="paint0_linear_38039_840" x1="0" y1="0" x2="80.2913" y2="34.3184" gradientUnits="userSpaceOnUse">
<stop stop-color="#E5E5E5"/>
<stop offset="1" stop-color="#F5F5F5" stop-opacity="0"/>
</linearGradient>
<linearGradient id="paint1_linear_38039_840" x1="0" y1="0" x2="80.2913" y2="34.3184" gradientUnits="userSpaceOnUse">
<stop stop-color="#E5E5E5"/>
<stop offset="1" stop-color="#F5F5F5" stop-opacity="0"/>
</linearGradient>
<linearGradient id="paint2_linear_38039_840" x1="0" y1="0" x2="80.2913" y2="34.3184" gradientUnits="userSpaceOnUse">
<stop stop-color="#E5E5E5"/>
<stop offset="1" stop-color="#F5F5F5" stop-opacity="0"/>
</linearGradient>
<linearGradient id="paint3_linear_38039_840" x1="0" y1="0" x2="80.2913" y2="34.3184" gradientUnits="userSpaceOnUse">
<stop stop-color="#E5E5E5"/>
<stop offset="1" stop-color="#F5F5F5" stop-opacity="0"/>
</linearGradient>
<linearGradient id="paint4_linear_38039_840" x1="0" y1="0" x2="80.2913" y2="34.3184" gradientUnits="userSpaceOnUse">
<stop stop-color="#E5E5E5"/>
<stop offset="1" stop-color="#F5F5F5" stop-opacity="0"/>
</linearGradient>
<linearGradient id="paint5_linear_38039_840" x1="0" y1="0" x2="80.2913" y2="34.3184" gradientUnits="userSpaceOnUse">
<stop stop-color="#E5E5E5"/>
<stop offset="1" stop-color="#F5F5F5" stop-opacity="0"/>
</linearGradient>
<linearGradient id="paint6_linear_38039_840" x1="0" y1="0" x2="80.2913" y2="34.3184" gradientUnits="userSpaceOnUse">
<stop stop-color="#E5E5E5"/>
<stop offset="1" stop-color="#F5F5F5" stop-opacity="0"/>
</linearGradient>
<linearGradient id="paint7_linear_38039_840" x1="0" y1="0" x2="80.2913" y2="34.3184" gradientUnits="userSpaceOnUse">
<stop stop-color="#E5E5E5"/>
<stop offset="1" stop-color="#F5F5F5" stop-opacity="0"/>
</linearGradient>
<linearGradient id="paint8_linear_38039_840" x1="0" y1="0" x2="80.2913" y2="34.3184" gradientUnits="userSpaceOnUse">
<stop stop-color="#E5E5E5"/>
<stop offset="1" stop-color="#F5F5F5" stop-opacity="0"/>
</linearGradient>
<linearGradient id="paint9_linear_38039_840" x1="0" y1="0" x2="80.2913" y2="34.3184" gradientUnits="userSpaceOnUse">
<stop stop-color="#E5E5E5"/>
<stop offset="1" stop-color="#F5F5F5" stop-opacity="0"/>
</linearGradient>
<linearGradient id="paint10_linear_38039_840" x1="0" y1="0" x2="80.2913" y2="34.3184" gradientUnits="userSpaceOnUse">
<stop stop-color="#E5E5E5"/>
<stop offset="1" stop-color="#F5F5F5" stop-opacity="0"/>
</linearGradient>
<linearGradient id="paint11_linear_38039_840" x1="0" y1="0" x2="80.2913" y2="34.3184" gradientUnits="userSpaceOnUse">
<stop stop-color="#E5E5E5"/>
<stop offset="1" stop-color="#F5F5F5" stop-opacity="0"/>
</linearGradient>
<linearGradient id="paint12_linear_38039_840" x1="0" y1="0" x2="80.2913" y2="34.3184" gradientUnits="userSpaceOnUse">
<stop stop-color="#E5E5E5"/>
<stop offset="1" stop-color="#F5F5F5" stop-opacity="0"/>
</linearGradient>
<linearGradient id="paint13_linear_38039_840" x1="0" y1="0" x2="80.2913" y2="34.3184" gradientUnits="userSpaceOnUse">
<stop stop-color="#E5E5E5"/>
<stop offset="1" stop-color="#F5F5F5" stop-opacity="0"/>
</linearGradient>
<linearGradient id="paint14_linear_38039_840" x1="0" y1="0" x2="80.2913" y2="34.3184" gradientUnits="userSpaceOnUse">
<stop stop-color="#E5E5E5"/>
<stop offset="1" stop-color="#F5F5F5" stop-opacity="0"/>
</linearGradient>
<linearGradient id="paint15_linear_38039_840" x1="0" y1="0" x2="80.2913" y2="34.3184" gradientUnits="userSpaceOnUse">
<stop stop-color="#E5E5E5"/>
<stop offset="1" stop-color="#F5F5F5" stop-opacity="0"/>
</linearGradient>
<linearGradient id="paint16_linear_38039_840" x1="0" y1="0" x2="80.2913" y2="34.3184" gradientUnits="userSpaceOnUse">
<stop stop-color="#E5E5E5"/>
<stop offset="1" stop-color="#F5F5F5" stop-opacity="0"/>
</linearGradient>
<linearGradient id="paint17_linear_38039_840" x1="0" y1="0" x2="80.2913" y2="34.3184" gradientUnits="userSpaceOnUse">
<stop stop-color="#E5E5E5"/>
<stop offset="1" stop-color="#F5F5F5" stop-opacity="0"/>
</linearGradient>
</defs>
</svg>
